{"title":"Step Up All In 2014 HDCAM [SPANISH] x264 Pimp4003","uid":10893619,"size":2706555534,"categoryP":"video","categoryS":"movies","magnet":"?xt=urn:btih:9761e8c7843f22de6e709e0476de95d0c0a8260d&amp;dn=Step+Up+All+In+2014+HDCAM+%5BSPANISH%5D+x264+Pimp4003&amp;tr=udp%3A%2F%2Ftracker.openbittorrent.com%3A80&amp;tr=udp%3A%2F%2Fopen.demonii.com%3A1337&amp;tr=udp%3A%2F%2Ftracker.coppersurfer.tk%3A6969&amp;tr=udp%3A%2F%2Fexodus.desync.com%3A6969","seeders":7,"leechers":1,"uploader":"shawnmurthy","files":-1,"time":1409148609,"description":"[color=red][b]LANGUAGE IS SPANISH VERSION....WAITING ON ENGLISH AUDIO....UNTIL THEN ENJOY[/b]\n[/color]\n\nVIDEO SOURCE-SPECTRE\n  &lt;a href=&quot;\nhttp://i.imgur.com/fW5GLTr.jpg&quot; rel=&quot;nofollow&quot; target=&quot;_NEW&quot;&gt;\nhttp://i.imgur.com/fW5GLTr.jpg&lt;/a&gt;\n &lt;a href=&quot;\nhttp://i.imgur.com/PyhyGX0.png&quot; rel=&quot;nofollow&quot; target=&quot;_NEW&quot;&gt;\nhttp://i.imgur.com/PyhyGX0.png&lt;/a&gt;\n\nStep Up All In 2014 HDCAM [SPANISH] x264 Pimp4003\n\nENJOY\n\nPIMP4003\n\nVideo\n\nID : 2\n\nFormat : AVC\n\nFormat/Info : Advanced Video Codec\n\nFormat profile : &lt;a class=&quot;__cf_email__&quot; href=&quot;/cdn-cgi/l/email-protection&quot; data-cfemail=&quot;befcdfcddbd2d7d0dbfef28d908e&quot;&gt;[email&amp;#160;protected]&lt;/a&gt;&lt;script cf-hash='f9e31' type=&quot;text/javascript&quot;&gt;\n/* &lt;![CDATA[ */!function(){try{var t=&quot;currentScript&quot;in document?document.currentScript:function(){for(var t=document.getElementsByTagName(&quot;script&quot;),e=t.length;e--;)if(t[e].getAttribute(&quot;cf-hash&quot;))return t[e]}();if(t&amp;&amp;t.previousSibling){var e,r,n,i,c=t.previousSibling,a=c.getAttribute(&quot;data-cfemail&quot;);if(a){for(e=&quot;&quot;,r=parseInt(a.substr(0,2),16),n=2;a.length-n;n+=2)i=parseInt(a.substr(n,2),16)^r,e+=String.fromCharCode(i);e=document.createTextNode(e),c.parentNode.replaceChild(e,c)}}}catch(u){}}();/* ]]&gt; */&lt;/script&gt;\n\nFormat settings, CABAC : No\n\nFormat settings, ReFrames : 1 frame\n\nFormat settings, GOP : M=1, N=25\n\nMuxing mode : Container profile=&lt;a class=&quot;__cf_email__&quot; href=&quot;/cdn-cgi/l/email-protection&quot; data-cfemail=&quot;bbf9dac8ded7d2d5defb8f958a&quot;&gt;[email&amp;#160;protected]&lt;/a&gt;&lt;script cf-hash='f9e31' type=&quot;text/javascript&quot;&gt;\n/* &lt;![CDATA[ */!function(){try{var t=&quot;currentScript&quot;in document?document.currentScript:function(){for(var t=document.getElementsByTagName(&quot;script&quot;),e=t.length;e--;)if(t[e].getAttribute(&quot;cf-hash&quot;))return t[e]}();if(t&amp;&amp;t.previousSibling){var e,r,n,i,c=t.previousSibling,a=c.getAttribute(&quot;data-cfemail&quot;);if(a){for(e=&quot;&quot;,r=parseInt(a.substr(0,2),16),n=2;a.length-n;n+=2)i=parseInt(a.substr(n,2),16)^r,e+=String.fromCharCode(i);e=document.createTextNode(e),c.parentNode.replaceChild(e,c)}}}catch(u){}}();/* ]]&gt; */&lt;/script&gt;\n\nCodec ID : avc1\n\nCodec ID/Info : Advanced Video Coding\n\nDuration : 1h 45mn\n\nBit rate : 3 288 Kbps\n\nWidth : 1 280 pixels\n\nHeight : 720 pixels\n\nDisplay aspect ratio : 16:9\n\nFrame rate mode : Constant\n\nFrame rate : 29.970 fps\n\nOriginal frame rate : 29.000 fps\n\nColor space : YUV\n\nChroma subsampling : 4:2:0\n\nBit depth : 8 bits\n\nScan type : Progressive\n\nBits/(Pixel*Frame) : 0.119\n\nStream size : 2.42 GiB (96%)\n\nWriting library : Ã„\n\nLanguage : Spanish\n\nAudio\n\nID : 1\n\nFormat : AAC\n\nFormat/Info : Advanced Audio Codec\n\nFormat profile : LC\n\nCodec ID : 40\n\nDuration : 1h 45mn\n\nBit rate mode : Constant\n\nBit rate : 128 Kbps\n\nChannel(s) : 2 channels\n\nChannel positions : Front: L R\n\nSampling rate : 48.0 KHz\n\nCompression mode : Lossy\n\nStream size : 96.5 MiB (4%)\n\nLanguage : Spanish\n","torrent":{"xt":"urn:btih:9761e8c7843f22de6e709e0476de95d0c0a8260d","amp;dn":"Step+Up+All+In+2014+HDCAM+%5BSPANISH%5D+x264+Pimp4003","amp;tr":["udp%3A%2F%2Ftracker.openbittorrent.com%3A80","udp%3A%2F%2Fopen.demonii.com%3A1337","udp%3A%2F%2Ftracker.coppersurfer.tk%3A6969","udp%3A%2F%2Fexodus.desync.com%3A6969"],"infoHash":"9761e8c7843f22de6e709e0476de95d0c0a8260d","infoHashBuffer":{"type":"Buffer","data":[151,97,232,199,132,63,34,222,110,112,158,4,118,222,149,208,192,168,38,13]},"announce":[],"urlList":[]}}